<svg width="400" height="400" viewBox="0 0 400 400" fill="none" xmlns="http://www.w3.org/2000/svg">
<path d="M258 124.062V168L210.894 182.721C210.391 182.878 210.097 183.398 210.221 183.911L225.969 248.871C225.989 248.957 225.999 249.045 225.997 249.133L225.025 286.526C225.011 287.068 224.568 287.5 224.026 287.5H210.793C210.329 287.5 209.925 287.18 209.819 286.728L201.282 250.205C201.137 249.585 200.457 249.257 199.881 249.528L183.428 257.298C183.157 257.426 182.958 257.669 182.885 257.959L175.689 286.743C175.578 287.188 175.178 287.5 174.719 287.5H158.967C158.428 287.5 157.986 287.072 157.968 286.533L157.003 257.593C157.001 257.531 157.005 257.469 157.014 257.408L168.473 183.172C168.491 183.058 168.489 182.942 168.467 182.829L158.218 130.121C158.103 129.527 158.536 128.968 159.14 128.932L169 128.34L170.25 128.265L171.5 128.19L175.5 127.95L256.94 123.064C257.515 123.029 258 123.486 258 124.062Z" fill="#FAFAFA"/>
<path d="M258 168V124.062C258 123.486 257.515 123.029 256.94 123.064L175.5 127.95L171.5 128.19M258 168L210.894 182.721C210.391 182.878 210.097 183.398 210.221 183.911L225.969 248.871C225.989 248.957 225.999 249.045 225.997 249.133L225.025 286.526C225.011 287.068 224.568 287.5 224.026 287.5H210.793C210.329 287.5 209.925 287.18 209.819 286.728L201.282 250.205C201.137 249.585 200.457 249.257 199.881 249.528L183.428 257.298C183.157 257.426 182.958 257.669 182.885 257.959L175.689 286.743C175.578 287.188 175.178 287.5 174.719 287.5H158.967C158.428 287.5 157.986 287.072 157.968 286.533L157.003 257.593C157.001 257.531 157.005 257.469 157.014 257.408L168.473 183.172C168.491 183.058 168.489 182.942 168.467 182.829L158.218 130.121C158.103 129.527 158.536 128.968 159.14 128.932L169 128.34M258 168H256M219.5 168H215.414C214.523 168 214.077 166.923 214.707 166.293L215.345 165.655C215.715 165.285 216.306 165.263 216.703 165.603L219.5 168ZM219.5 168L222.297 165.603C222.694 165.263 223.285 165.285 223.655 165.655L226 168M219.5 168H226M226 168L228.293 165.707C228.683 165.317 229.317 165.317 229.707 165.707L232 168M226 168H232M232 168L234.293 165.707C234.683 165.317 235.317 165.317 235.707 165.707L238 168M232 168H238M238 168L240.293 165.707C240.683 165.317 241.317 165.317 241.707 165.707L244 168M238 168H244M244 168L246.293 165.707C246.683 165.317 247.317 165.317 247.707 165.707L250 168M244 168H250M250 168L252.293 165.707C252.683 165.317 253.317 165.317 253.707 165.707L256 168M250 168H253H256M169 128.34L161 113M169 128.34L170.25 128.265M171.5 128.19L173.5 119.5M171.5 128.19L170.25 128.265M170.25 128.265L169 117" stroke="black" stroke-width="2"/>
<rect x="177" y="138" width="17" height="17" rx="5" fill="black"/>
<rect x="183" y="142" width="7" height="7" rx="2" fill="white"/>
</svg>
